<svg xmlns="http://www.w3.org/2000/svg" xmlns:xlink="http://www.w3.org/1999/xlink" width="40" height="40" viewBox="0 0 40 40">
  <defs>
    <linearGradient id="linear-gradient" x1="0.48" y1="0.757" x2="0.5" y2="1" gradientUnits="objectBoundingBox">
      <stop offset="0" stop-color="#c04f9d"/>
      <stop offset="1" stop-color="#60284f"/>
    </linearGradient>
    <filter id="Arrow_-_dark" x="-2" y="4" width="33" height="43" filterUnits="userSpaceOnUse">
      <feOffset dy="3"/>
      <feGaussianBlur stdDeviation="3" result="blur"/>
      <feFlood flood-opacity="0.878"/>
      <feComposite operator="in" in2="blur"/>
      <feComposite in="SourceGraphic"/>
    </filter>
    <linearGradient id="linear-gradient-2" x1="0.438" y1="0.667" x2="0.5" y2="1" gradientUnits="objectBoundingBox">
      <stop offset="0" stop-color="#f66ae8"/>
      <stop offset="1" stop-color="#7b3574"/>
    </linearGradient>
    <filter id="Arrow_-_light" x="-2" y="4" width="33" height="43" filterUnits="userSpaceOnUse">
      <feOffset dy="3"/>
      <feGaussianBlur stdDeviation="3" result="blur-2"/>
      <feFlood flood-opacity="0.878"/>
      <feComposite operator="in" in2="blur-2"/>
      <feComposite in="SourceGraphic"/>
    </filter>
    <clipPath id="clip-_40_x_40_px_-_Intellij_IDEA_Logo_Icon">
      <rect width="40" height="40"/>
    </clipPath>
  </defs>
  <g id="_40_x_40_px_-_Intellij_IDEA_Logo_Icon" clip-path="url(#clip-_40_x_40_px_-_Intellij_IDEA_Logo_Icon)">
    <g id="ClipBoard" transform="translate(1 1.592)">
      <path id="Frame_CpB-white" d="M26.167,3.425H23.544A3.627,3.627,0,0,0,20.125,1h-7.25A3.627,3.627,0,0,0,9.456,3.425H6.833A4.842,4.842,0,0,0,2,8.275V30.1a4.842,4.842,0,0,0,4.833,4.85H26.167A4.841,4.841,0,0,0,31,30.1V8.275A4.842,4.842,0,0,0,26.167,3.425ZM6.833,5.85H9.456a3.627,3.627,0,0,0,3.419,2.425h7.25A3.627,3.627,0,0,0,23.544,5.85h2.623a2.421,2.421,0,0,1,2.417,2.425V30.1a2.421,2.421,0,0,1-2.417,2.425H6.833A2.421,2.421,0,0,1,4.417,30.1V8.275A2.421,2.421,0,0,1,6.833,5.85Zm6.042-2.425a1.212,1.212,0,0,0,0,2.425h7.25a1.212,1.212,0,0,0,0-2.425Z" fill="#fffffe" fill-rule="evenodd"/>
    </g>
    <g id="Active_Ww" transform="translate(-4 -1)">
      <rect id="Active_Ww-2" width="22" height="25" rx="3" transform="translate(18.5 13)" fill="#fff" stroke="#047ad5" stroke-width="2"/>
      <line id="Line_1" x2="9" transform="translate(25 30)" fill="none" stroke="#8b8b8b" stroke-linecap="round" stroke-width="2"/>
      <line id="Line_2" x2="9" transform="translate(25 25)" fill="none" stroke="#8b8b8b" stroke-linecap="round" stroke-width="2"/>
      <line id="Line_3" x2="9" transform="translate(25 20)" fill="rgba(0,0,0,0)" stroke="#8b8b8b" stroke-linecap="round" stroke-width="2"/>
    </g>
    <g id="Arrow" transform="translate(-1)">
      <g transform="matrix(1, 0, 0, 1, 1, 0)" filter="url(#Arrow_-_dark)">
        <g id="Arrow_-_dark-2" transform="translate(22 10) rotate(90)" stroke-linecap="round" fill="url(#linear-gradient)">
          <path d="M 20.72991561889648 14.50000286102295 L 4.270086288452148 14.50000286102295 C 3.672836303710938 14.50000286102295 3.165026187896729 14.17710208892822 2.911696195602417 13.63624286651611 C 2.658366203308105 13.09537220001221 2.735396146774292 12.49854278564453 3.117746114730835 12.03972244262695 L 11.34766578674316 2.163822412490845 C 11.63350582122803 1.820822477340698 12.05350589752197 1.624102473258972 12.49999618530273 1.624102473258972 C 12.9464864730835 1.624102473258972 13.36648654937744 1.820822477340698 13.6523265838623 2.163822412490845 L 21.88224601745605 12.03972244262695 C 22.26459693908691 12.4985523223877 22.34162712097168 13.09537220001221 22.08829689025879 13.63624286651611 C 21.8349666595459 14.17710208892822 21.3271656036377 14.50000286102295 20.72991561889648 14.50000286102295 Z" stroke="none"/>
          <path d="M 12.49999618530273 2.124102592468262 C 12.32506656646729 2.124102592468262 11.99266624450684 2.170842170715332 11.73177623748779 2.483912467956543 L 3.501855850219727 12.35981273651123 C 3.124135971069336 12.81308269500732 3.301225662231445 13.28907203674316 3.364496231079102 13.42415237426758 C 3.427766799926758 13.55924224853516 3.680055618286133 14.00000286102295 4.270086288452148 14.00000286102295 L 20.72991561889648 14.00000286102295 C 21.31993675231934 14.00000286102295 21.57222557067871 13.55924224853516 21.63549613952637 13.42416191101074 C 21.69876670837402 13.28907203674316 21.87585639953613 12.81308269500732 21.49813652038574 12.35981273651123 L 13.26821613311768 2.483912467956543 C 13.00732612609863 2.170852661132812 12.67491626739502 2.124102592468262 12.49999618530273 2.124102592468262 M 12.49999618530273 1.124099731445312 C 13.06831836700439 1.124099731445312 13.63664150238037 1.363977432250977 14.03643608093262 1.843732833862305 L 22.26635551452637 11.71963310241699 C 23.35189628601074 13.02228260040283 22.42558670043945 15.00000286102295 20.72991561889648 15.00000286102295 L 4.270086288452148 15.00000286102295 C 2.574405670166016 15.00000286102295 1.648096084594727 13.02228260040283 2.733636856079102 11.71963310241699 L 10.96355628967285 1.843732833862305 C 11.3633508682251 1.363977432250977 11.93167400360107 1.124099731445312 12.49999618530273 1.124099731445312 Z" stroke="none" fill="#fffffe"/>
        </g>
      </g>
      <g transform="matrix(1, 0, 0, 1, 1, 0)" filter="url(#Arrow_-_light)">
        <g id="Arrow_-_light-2" transform="translate(22 10) rotate(90)" stroke-linecap="round" fill="url(#linear-gradient-2)">
          <path d="M 20.72991561889648 14.50000286102295 L 4.270086288452148 14.50000286102295 C 3.672836303710938 14.50000286102295 3.165026187896729 14.17710208892822 2.911696195602417 13.63624286651611 C 2.658366203308105 13.09537220001221 2.735396146774292 12.49854278564453 3.117746114730835 12.03972244262695 L 11.34766578674316 2.163822412490845 C 11.63350582122803 1.820822477340698 12.05350589752197 1.624102473258972 12.49999618530273 1.624102473258972 C 12.9464864730835 1.624102473258972 13.36648654937744 1.820822477340698 13.6523265838623 2.163822412490845 L 21.88224601745605 12.03972244262695 C 22.26459693908691 12.4985523223877 22.34162712097168 13.09537220001221 22.08829689025879 13.63624286651611 C 21.8349666595459 14.17710208892822 21.3271656036377 14.50000286102295 20.72991561889648 14.50000286102295 Z" stroke="none"/>
          <path d="M 12.49999618530273 2.124102592468262 C 12.32506656646729 2.124102592468262 11.99266624450684 2.170842170715332 11.73177623748779 2.483912467956543 L 3.501855850219727 12.35981273651123 C 3.124135971069336 12.81308269500732 3.301225662231445 13.28907203674316 3.364496231079102 13.42415237426758 C 3.427766799926758 13.55924224853516 3.680055618286133 14.00000286102295 4.270086288452148 14.00000286102295 L 20.72991561889648 14.00000286102295 C 21.31993675231934 14.00000286102295 21.57222557067871 13.55924224853516 21.63549613952637 13.42416191101074 C 21.69876670837402 13.28907203674316 21.87585639953613 12.81308269500732 21.49813652038574 12.35981273651123 L 13.26821613311768 2.483912467956543 C 13.00732612609863 2.170852661132812 12.67491626739502 2.124102592468262 12.49999618530273 2.124102592468262 M 12.49999618530273 1.124099731445312 C 13.06831836700439 1.124099731445312 13.63664150238037 1.363977432250977 14.03643608093262 1.843732833862305 L 22.26635551452637 11.71963310241699 C 23.35189628601074 13.02228260040283 22.42558670043945 15.00000286102295 20.72991561889648 15.00000286102295 L 4.270086288452148 15.00000286102295 C 2.574405670166016 15.00000286102295 1.648096084594727 13.02228260040283 2.733636856079102 11.71963310241699 L 10.96355628967285 1.843732833862305 C 11.3633508682251 1.363977432250977 11.93167400360107 1.124099731445312 12.49999618530273 1.124099731445312 Z" stroke="none" fill="#fffffe"/>
        </g>
      </g>
    </g>
  </g>
</svg>
