<?xml version="1.0" encoding="UTF-8"?>
<svg id="Layer_1" xmlns="http://www.w3.org/2000/svg" viewBox="0 0 40 40">
  <defs>
    <style>
      .cls-1 {
        fill: url(#radial-gradient);
        fill-rule: evenodd;
      }

      .cls-2 {
        fill: url(#linear-gradient-2);
      }

      .cls-3 {
        stroke: #8b8b8b;
        stroke-linecap: round;
      }

      .cls-3, .cls-4 {
        stroke-width: 2px;
      }

      .cls-3, .cls-5 {
        fill: none;
      }

      .cls-6 {
        filter: url(#drop-shadow-1);
      }

      .cls-7 {
        fill: #fffffe;
      }

      .cls-4 {
        fill: #fff;
        stroke: #047ad5;
      }

      .cls-8 {
        clip-path: url(#clippath);
      }

      .cls-9 {
        fill: url(#linear-gradient);
      }
    </style>
    <clipPath id="clippath">
      <rect class="cls-5" width="40" height="40"/>
    </clipPath>
    <radialGradient id="radial-gradient" cx="10.33" cy="47.72" fx="10.33" fy="47.72" r=".87" gradientTransform="translate(-1855.47 -516.71) rotate(93.82) scale(33.92 -39.62) skewX(1.68)" gradientUnits="userSpaceOnUse">
      <stop offset="0" stop-color="#fcbf45"/>
      <stop offset=".69" stop-color="#ff03e1"/>
      <stop offset="1" stop-color="#5d028f"/>
    </radialGradient>
    <filter id="drop-shadow-1" filterUnits="userSpaceOnUse">
      <feOffset dx="1" dy="2"/>
      <feGaussianBlur result="blur" stdDeviation="2"/>
      <feFlood flood-color="#000" flood-opacity=".75"/>
      <feComposite in2="blur" operator="in"/>
      <feComposite in="SourceGraphic"/>
    </filter>
    <linearGradient id="linear-gradient" x1="19.8" y1="61.46" x2="19.82" y2="61.21" gradientTransform="translate(-780.66 -363.24) rotate(90) scale(19.47 -12.88)" gradientUnits="userSpaceOnUse">
      <stop offset="0" stop-color="#c04f9d"/>
      <stop offset="1" stop-color="#60284f"/>
    </linearGradient>
    <linearGradient id="linear-gradient-2" x1="19.77" y1="61.55" x2="19.83" y2="61.22" gradientTransform="translate(-780.66 -363.24) rotate(90) scale(19.47 -12.88)" gradientUnits="userSpaceOnUse">
      <stop offset="0" stop-color="#f66ae8"/>
      <stop offset="1" stop-color="#7b3574"/>
    </linearGradient>
  </defs>
  <g class="cls-8">
    <g id="ClipBoard">
      <path id="Frame_CpB-normal" class="cls-1" d="m27.17,5.02h-2.62c-.51-1.45-1.88-2.42-3.42-2.42h-7.25c-1.54,0-2.91.97-3.42,2.42h-2.62c-2.67,0-4.84,2.18-4.83,4.85v21.83c0,2.67,2.16,4.85,4.83,4.85h19.33c2.67,0,4.84-2.18,4.83-4.85,0,0,0,0,0,0V9.87c0-2.67-2.16-4.85-4.83-4.85ZM7.83,7.44h2.62c.51,1.45,1.88,2.42,3.42,2.42h7.25c1.54,0,2.91-.97,3.42-2.42h2.62c1.34,0,2.42,1.09,2.42,2.42h0v21.83c0,1.34-1.08,2.42-2.42,2.43H7.83c-1.34,0-2.42-1.09-2.42-2.43V9.87c0-1.34,1.08-2.42,2.42-2.42Zm6.04-2.42c-.67,0-1.21.54-1.21,1.21s.54,1.21,1.21,1.21h7.25c.67,0,1.21-.54,1.21-1.21s-.54-1.21-1.21-1.21h-7.25Z"/>
    </g>
    <g id="Active_Ww">
      <rect id="Active_Ww-2" class="cls-4" x="14.5" y="12" width="22" height="25" rx="3" ry="3"/>
      <line id="Line_1" class="cls-3" x1="21" y1="29" x2="30" y2="29"/>
      <line id="Line_2" class="cls-3" x1="21" y1="24" x2="30" y2="24"/>
      <line id="Line_3" class="cls-3" x1="21" y1="19" x2="30" y2="19"/>
    </g>
    <g id="Arrow" class="cls-6">
      <g id="Arrow_-_dark-2">
        <path class="cls-9" d="m7.5,30.73V14.27c0-.6.32-1.11.86-1.36.54-.25,1.14-.18,1.6.21l9.88,8.23c.34.29.54.71.54,1.15s-.2.87-.54,1.15l-9.88,8.23c-.46.38-1.06.46-1.6.21-.54-.25-.86-.76-.86-1.36Z"/>
        <path class="cls-7" d="m19.88,22.5c0-.17-.05-.51-.36-.77l-9.88-8.23c-.45-.38-.93-.2-1.06-.14-.14.06-.58.32-.58.91v16.46c0,.59.44.84.58.91.14.06.61.24,1.06-.14l9.88-8.23c.31-.26.36-.59.36-.77m1,0c0,.57-.24,1.14-.72,1.54l-9.88,8.23c-1.3,1.09-3.28.16-3.28-1.54V14.27c0-1.7,1.98-2.62,3.28-1.54l9.88,8.23c.48.4.72.97.72,1.54Z"/>
      </g>
      <g id="Arrow_-_light-2">
        <path class="cls-2" d="m7.5,30.73V14.27c0-.6.32-1.11.86-1.36.54-.25,1.14-.18,1.6.21l9.88,8.23c.34.29.54.71.54,1.15s-.2.87-.54,1.15l-9.88,8.23c-.46.38-1.06.46-1.6.21-.54-.25-.86-.76-.86-1.36Z"/>
        <path class="cls-7" d="m19.88,22.5c0-.17-.05-.51-.36-.77l-9.88-8.23c-.45-.38-.93-.2-1.06-.14-.14.06-.58.32-.58.91v16.46c0,.59.44.84.58.91.14.06.61.24,1.06-.14l9.88-8.23c.31-.26.36-.59.36-.77m1,0c0,.57-.24,1.14-.72,1.54l-9.88,8.23c-1.3,1.09-3.28.16-3.28-1.54V14.27c0-1.7,1.98-2.62,3.28-1.54l9.88,8.23c.48.4.72.97.72,1.54Z"/>
      </g>
    </g>
  </g>
</svg>