<?xml version="1.0" encoding="UTF-8" standalone="no"?>
<svg
   version="1.0"
   width="515.29755pt"
   height="316.34998pt"
   viewBox="0 0 515.29755 316.34998"
   preserveAspectRatio="xMidYMid"
   id="svg25"
   xmlns="http://www.w3.org/2000/svg"
   xmlns:svg="http://www.w3.org/2000/svg">
  <defs
     id="defs25" />
  <g
     transform="matrix(0.1,0,0,-0.1,-126.07147,541.85001)"
     fill="#000000"
     stroke="none"
     id="g25">
    <path
       d="m 2720,5405 c -381,-76 -739,-370 -924,-759 -84,-174 -119,-321 -119,-491 -1,-261 114,-461 323,-563 126,-62 182,-74 360,-79 209,-7 339,16 533,94 49,19 91,33 93,30 3,-2 -11,-40 -30,-83 l -35,-79 -408,-7 c -454,-8 -658,-20 -748,-44 -72,-19 -182,-73 -247,-121 -68,-50 -160,-153 -196,-221 -84,-157 -81,-394 5,-555 41,-75 136,-166 214,-204 114,-55 177,-68 344,-68 130,0 160,3 225,23 268,85 495,293 646,592 20,41 79,170 130,285 l 93,210 45,3 c 42,3 46,1 53,-25 9,-32 8,-320 -2,-407 l -6,-59 118,6 c 116,6 195,22 243,47 43,22 80,62 86,94 12,65 -31,113 -123,138 -38,11 -59,28 -33,28 5,0 25,14 45,31 26,24 35,39 35,63 0,57 -48,85 -163,94 -80,7 -82,8 -79,32 4,46 -11,55 -93,55 -43,0 -75,4 -75,10 0,6 25,66 56,135 l 56,125 149,98 c 178,117 419,292 544,393 49,40 90,72 92,70 2,-2 -21,-54 -51,-117 -244,-511 -119,-763 324,-649 136,35 283,102 411,187 38,25 71,44 73,42 2,-2 13,-24 25,-47 50,-99 153,-169 291,-198 223,-47 502,65 695,279 l 60,66 -3,-59 c -7,-125 53,-234 143,-259 106,-29 267,-1 414,72 82,41 86,44 86,76 0,60 -21,61 -134,7 -204,-96 -351,-98 -398,-5 -7,13 -13,58 -13,99 0,120 39,261 137,494 46,108 53,133 44,153 -9,21 -17,23 -76,23 -62,0 -66,-1 -84,-31 l -19,-30 -20,33 c -103,166 -349,206 -613,98 -261,-106 -501,-361 -540,-575 -7,-33 -13,-66 -15,-72 -6,-22 -137,-112 -239,-162 -148,-74 -271,-113 -381,-119 -158,-8 -200,32 -192,182 7,115 53,246 159,454 49,96 89,178 89,183 0,24 -35,39 -88,39 -53,-1 -60,-4 -107,-46 -151,-137 -676,-527 -690,-512 -2,2 46,117 106,257 68,156 107,260 104,272 -3,10 -15,21 -26,24 -10,4 -19,9 -19,13 0,4 14,48 30,97 38,113 60,235 60,334 -1,258 -148,448 -391,506 -78,18 -268,18 -359,0 z m 363,-99 c 298,-94 370,-387 201,-808 -29,-70 -33,-91 -24,-107 6,-12 18,-21 27,-21 21,0 22,4 -112,-308 l -118,-273 -111,-54 c -193,-94 -345,-129 -556,-129 -166,0 -260,20 -365,79 -283,158 -336,534 -132,940 180,360 510,622 870,691 87,16 252,11 320,-10 z m 2574,-841 c 90,-45 129,-117 127,-240 -2,-132 -59,-257 -173,-378 -161,-171 -353,-257 -541,-244 -317,21 -401,296 -175,569 209,254 563,390 762,293 z M 2870,3362 c 0,-25 -216,-485 -261,-557 -143,-227 -345,-390 -549,-442 -139,-35 -338,-17 -467,42 -104,47 -197,164 -223,280 -18,80 -14,225 8,288 62,176 256,330 462,369 30,5 105,13 165,18 154,10 865,12 865,2 z m 428,-24 c 38,-11 65,-47 60,-80 -4,-32 -60,-66 -125,-74 -68,-8 -73,-3 -73,88 0,53 4,69 18,77 18,11 63,7 120,-11 z m 42,-209 c 92,-23 127,-73 93,-131 -31,-53 -93,-81 -190,-86 l -83,-5 v 110 c 0,60 5,114 10,119 11,11 116,7 170,-7 z"
       id="path1" />
    <path
       d="m 3991,4852 c -11,-20 48,-215 73,-240 24,-25 57,-5 126,74 108,125 106,132 -37,163 -115,26 -149,27 -162,3 z"
       id="path2" />
    <path
       d="m 3714,3372 -51,-3 4,-194 c 3,-153 0,-203 -11,-237 -13,-37 -13,-45 -1,-57 10,-11 22,-12 46,-5 l 32,9 1,222 c 1,122 5,225 9,229 11,11 112,6 158,-7 67,-20 98,-84 69,-140 -14,-25 -77,-57 -148,-73 -44,-10 -57,-17 -57,-31 0,-15 34,-33 165,-85 91,-36 182,-76 202,-88 44,-27 70,-28 93,-2 10,11 16,21 14,23 -2,1 -29,12 -59,24 -203,79 -297,117 -308,128 -10,9 -4,14 30,24 195,58 222,190 50,240 -72,21 -155,29 -238,23 z"
       id="path3" />
    <path
       d="m 4496,3348 c -3,-17 -5,-32 -3,-34 6,-6 202,-6 200,0 -2,3 -3,20 -3,36 v 30 h -94 -93 z"
       id="path4" />
    <path
       d="m 5019,3373 c -18,-4 -29,-90 -30,-237 0,-45 -4,-103 -10,-131 -5,-27 -12,-67 -15,-87 l -7,-38 h 39 c 65,0 68,6 54,102 -14,91 -10,242 6,271 10,17 26,7 156,-91 80,-60 183,-136 229,-168 46,-32 98,-70 116,-85 39,-33 71,-45 86,-30 7,7 12,80 13,198 2,138 7,201 18,238 9,28 16,51 16,53 0,2 -19,2 -42,0 l -43,-3 -3,-192 c -1,-106 -6,-193 -10,-193 -19,0 -160,101 -452,323 -105,80 -99,76 -121,70 z"
       id="path5" />
    <path
       d="m 5843,3371 c -5,-3 -9,-91 -9,-201 1,-107 -3,-219 -8,-247 l -9,-53 h 29 c 39,0 151,25 249,57 229,72 344,178 314,288 -25,89 -120,146 -257,151 -249,10 -300,11 -309,5 z m 332,-46 c 110,-29 157,-77 159,-161 1,-49 -33,-98 -100,-145 -57,-39 -203,-91 -263,-93 -57,-1 -59,5 -60,184 -1,141 9,207 31,221 22,14 170,10 233,-6 z"
       id="path6" />
    <path
       d="m 4441,3182 c -4,-9 -11,-29 -14,-43 l -7,-26 94,5 c 57,3 114,0 145,-8 62,-15 81,-4 81,45 v 33 l -114,-5 c -71,-4 -125,-2 -145,5 -26,9 -32,8 -40,-6 z"
       id="path7" />
    <path
       d="m 4366,2950 c -4,-28 -4,-54 -2,-59 3,-5 21,-4 39,3 23,8 89,9 222,3 104,-4 192,-4 196,0 4,5 10,30 14,57 6,45 5,48 -12,42 -52,-21 -161,-36 -265,-36 -99,0 -122,3 -151,20 l -34,20 z"
       id="path8" />
    <path
       d="m 2789,2639 c -14,-5 -35,-26 -46,-47 -38,-67 -114,-275 -111,-301 3,-23 8,-26 47,-29 53,-4 91,4 91,20 0,7 -14,9 -41,5 -47,-6 -69,-1 -69,18 0,17 76,218 100,266 22,43 50,55 105,46 29,-5 56,6 44,17 -11,10 -98,13 -120,5 z"
       id="path9" />
    <path
       d="m 5234,2631 c -27,-16 -41,-43 -91,-173 -77,-195 -78,-198 -61,-198 7,0 32,51 58,120 l 45,119 59,3 c 80,4 90,28 12,28 h -55 l 10,29 c 17,50 42,64 98,59 36,-4 51,-1 55,9 3,8 -2,13 -12,13 -9,0 -33,3 -52,6 -25,3 -44,-1 -66,-15 z"
       id="path10" />
    <path
       d="m 3550,2618 c -12,-13 -28,-38 -35,-55 -9,-22 -21,-33 -34,-33 -12,0 -21,-7 -21,-15 0,-8 7,-15 16,-15 12,0 14,-5 9,-17 -13,-31 -85,-218 -85,-220 0,-2 6,-3 13,-3 8,0 32,48 59,118 l 45,117 38,5 c 51,7 59,30 11,30 -35,0 -35,0 -24,28 22,50 40,64 75,59 22,-4 33,-1 37,9 10,25 -79,18 -104,-8 z"
       id="path11" />
    <path
       d="m 4132,2588 c -14,-37 -26,-54 -40,-56 -24,-4 -39,-32 -17,-32 21,0 20,-5 -21,-113 -20,-53 -34,-103 -31,-112 9,-22 93,-21 101,1 5,14 1,16 -23,11 -50,-10 -52,9 -13,116 l 36,97 h 37 c 24,0 39,5 43,15 4,12 -3,15 -30,15 -32,0 -35,2 -28,23 3,12 13,34 20,49 17,34 17,38 0,38 -8,0 -23,-23 -34,-52 z"
       id="path12" />
    <path
       d="m 5680,2628 c 0,-31 -36,-97 -54,-100 -24,-4 -34,-28 -11,-28 12,0 15,-5 10,-17 -38,-94 -68,-192 -62,-206 5,-14 16,-17 49,-15 24,2 43,9 46,17 3,10 -3,12 -27,6 -47,-10 -48,12 -6,120 l 37,95 h 39 c 28,0 39,4 39,15 0,10 -10,15 -30,15 -35,0 -36,4 -10,64 19,46 19,46 0,46 -11,0 -20,-6 -20,-12 z"
       id="path13" />
    <path
       d="m 4440,2601 c -13,-26 -13,-31 3,-31 8,0 19,11 25,25 9,20 9,25 -3,25 -8,0 -19,-9 -25,-19 z"
       id="path14" />
    <path
       d="m 2935,2512 c -28,-18 -48,-58 -100,-203 -9,-24 22,-49 61,-49 55,0 89,23 111,77 41,97 55,141 51,164 -3,21 -9,24 -48,27 -30,2 -55,-4 -75,-16 z m 95,-29 c 0,-27 -51,-156 -69,-175 -24,-25 -65,-32 -83,-14 -14,14 -12,23 16,94 40,101 49,112 97,112 30,0 39,-4 39,-17 z"
       id="path15" />
    <path
       d="m 3156,2507 c -12,-13 -42,-71 -64,-129 -47,-119 -47,-118 -29,-118 6,0 30,46 51,103 46,122 58,137 104,137 40,0 41,8 -16,-138 -31,-78 -37,-103 -26,-100 16,3 30,32 80,166 l 28,72 h 38 c 26,0 38,-4 38,-14 0,-12 -35,-109 -75,-208 -5,-12 -2,-18 7,-18 18,0 101,209 96,242 -3,22 -7,23 -106,26 -96,3 -104,1 -126,-21 z"
       id="path16" />
    <path
       d="m 3667,2510 c -16,-13 -39,-55 -63,-117 -45,-116 -42,-128 36,-128 45,1 56,5 79,31 30,34 87,193 78,217 -10,25 -96,23 -130,-3 z m 103,-25 c 0,-21 -59,-168 -73,-181 -20,-19 -62,-25 -81,-11 -16,12 -15,18 15,97 18,47 37,91 42,98 14,18 97,16 97,-3 z"
       id="path17" />
    <path
       d="m 3897,2519 c -21,-13 -49,-66 -87,-170 -35,-93 -34,-89 -17,-89 6,0 29,46 51,103 47,123 57,137 106,137 24,0 40,5 44,15 4,12 -3,15 -37,15 -23,0 -50,-5 -60,-11 z"
       id="path18" />
    <path
       d="m 4367,2413 c -25,-65 -49,-126 -52,-135 -5,-12 -2,-18 8,-18 9,0 31,43 62,123 26,67 49,128 52,135 3,6 -1,12 -9,12 -9,0 -32,-43 -61,-117 z"
       id="path19" />
    <path
       d="m 4517,2510 c -38,-30 -42,-64 -12,-115 14,-24 25,-50 25,-59 0,-25 -48,-56 -79,-50 -20,4 -30,1 -34,-10 -10,-25 73,-22 106,4 41,32 45,79 11,129 -23,35 -25,45 -16,66 10,21 18,25 56,25 30,0 46,5 50,15 9,24 -75,20 -107,-5 z"
       id="path20" />
    <path
       d="m 4836,2514 c -6,-15 -1,-16 37,-11 49,7 70,-2 61,-26 -4,-13 -18,-16 -57,-15 -45,1 -54,-3 -78,-30 -31,-35 -65,-131 -56,-156 6,-14 19,-16 73,-14 l 67,3 43,110 c 57,143 56,149 -22,153 -50,2 -63,0 -68,-14 z m 77,-81 c 3,-5 -7,-38 -21,-75 -24,-60 -29,-67 -60,-71 -51,-9 -64,0 -56,37 9,42 40,103 56,109 20,8 76,8 81,0 z"
       id="path21" />
    <path
       d="m 5377,2523 c -19,-31 -88,-226 -85,-240 4,-20 58,-29 113,-19 30,6 34,13 82,136 33,84 46,130 38,130 -13,0 -31,-39 -79,-166 -25,-68 -29,-72 -63,-79 -25,-4 -40,-2 -50,8 -12,12 -8,29 30,125 30,76 40,112 31,112 -7,0 -15,-3 -17,-7 z"
       id="path22" />
    <path
       d="m 5781,2420 c -23,-61 -41,-120 -39,-133 3,-20 9,-22 70,-23 l 67,-2 50,129 c 28,71 51,132 51,134 0,3 -6,5 -12,5 -11,0 -79,-157 -95,-219 -8,-32 -103,-38 -103,-6 0,11 36,111 75,208 5,11 2,17 -7,17 -10,0 -30,-40 -57,-110 z"
       id="path23" />
    <path
       d="m 6056,2506 c -12,-14 -40,-71 -62,-127 -21,-57 -40,-106 -42,-111 -2,-4 3,-8 11,-8 9,0 30,40 56,109 23,60 48,114 55,120 6,5 29,12 51,14 57,6 57,27 0,27 -36,0 -51,-5 -69,-24 z"
       id="path24" />
    <path
       d="m 6239,2515 c -20,-11 -36,-39 -63,-106 -21,-51 -36,-104 -34,-118 3,-24 7,-26 59,-29 45,-2 58,0 63,13 5,14 0,16 -31,14 -21,-1 -44,-1 -50,0 -16,1 -17,32 -1,66 10,23 16,25 78,25 h 68 l 23,56 c 16,41 20,61 12,73 -13,21 -90,25 -124,6 z m 96,-25 c 3,-5 -1,-25 -9,-45 -14,-34 -17,-35 -65,-35 -58,0 -62,8 -31,58 17,27 25,32 59,32 22,0 42,-4 46,-10 z"
       id="path25" />
  </g>
</svg>
