<!-- Copyright 2000-2022 JetBrains s.r.o. and contributors. Use of this source code is governed by the Apache 2.0 license. -->
<svg width="16" height="16" viewBox="0 0 16 16" fill="none" xmlns="http://www.w3.org/2000/svg">

    <!-- Lines -->
    <path d="M 5.5 6 
             C 5.22386 6 5 6.22386 5 6.5 
             C 5 6.77614 5.22386 7 5.5 7 
             H 10.5 
             C 10.7761 7 11 6.77614 11 6.5 
             C 11 6.22386 10.7761 6 10.5 6 
             H 5.5 Z"
          fill="#6C707E"/>

    <path d="M 5 8.5 
             C 5 8.22386 5.22386 8 5.5 8 
             H 10.5 
             C 10.7761 8 11 8.22386 11 8.5 
             C 11 8.77614 10.7761 9 10.5 9 
             H 5.5 
             C 5.22386 9 5 8.77614 5 8.5 Z"
          fill="#6C707E"/>

    <path d="M 5.5 10 
             C 5.22386 10 5 10.2239 5 10.5 
             C 5 10.7761 5.22386 11 5.5 11 
             H 10.5 
             C 10.7761 11 11 10.7761 11 10.5 
             C 11 10.2239 10.7761 10 10.5 10 
             H 5.5 Z"
          fill="#6C707E"/>

    <!-- Clipboard Outline -->
    <path fill-rule="evenodd" clip-rule="evenodd"
          d="M 12 2 
             H 10.9146 
             C 10.7087 1.4174 10.1531 1 9.5 1 
             H 6.5 
             C 5.84689 1 5.29127 1.4174 5.08535 2 
             H 4 
             C 2.89543 2 2 2.89543 2 4 
             V 13 
             C 2 14.1046 2.89543 15 4 15 
             H 12 
             C 13.1046 15 14 14.1046 14 13 
             V 4 
             C 14 2.89543 13.1046 2 12 2 Z

             M 4 3 
             H 5.08535 
             C 5.29127 3.5826 5.84689 4 6.5 4 
             H 9.5 
             C 10.1531 4 10.7087 3.5826 10.9146 3 
             H 12 
             C 12.5523 3 13 3.44772 13 4 
             V 13 
             C 13 13.5523 12.5523 14 12 14 
             H 4 
             C 3.44772 14 3 13.5523 3 13 
             V 4 
             C 3 3.44772 3.44772 3 4 3 Z

             M 6.5 2 
             C 6.22386 2 6 2.22386 6 2.5 
             C 6 2.77614 6.22386 3 6.5 3 
             H 9.5 
             C 9.77614 3 10 2.77614 10 2.5 
             C 10 2.22386 9.77614 2 9.5 2 
             H 6.5 Z"
          fill="#047AD5"/>

    <!-- Arrow -->
    <g transform="translate(10.25, 5.15) scale(-0.025, 0.025)">
        <path d="M 222.979,5.424
                 C 219.364,1.807 215.08,0 210.132,0
                 C 205.183,0 200.899,1.807 197.284,5.424
                 L 69.378,133.331
                 Q 63.5,140 64,146
                 T 69.378,159
                 L 197.284,287
                 C 202,292 207,293 210,293
                 C 215,293 220,292 225,287
                 C 228,284 230,280 230,276
                 V 18.271
                 C 230,13 228,9 225,6
                 Z"
              fill="#047AD5" stroke="#CED0D6" stroke-width="40"
              stroke-linejoin="round" stroke-linecap="round"/>
    </g>

</svg>
